<?xml version="1.0" encoding="UTF-8" standalone="no"?>
<svg
   xmlns:xhtml="http://www.w3.org/1999/xhtml"
   xmlns:dc="http://purl.org/dc/elements/1.1/"
   xmlns:cc="http://creativecommons.org/ns#"
   xmlns:rdf="http://www.w3.org/1999/02/22-rdf-syntax-ns#"
   xmlns:svg="http://www.w3.org/2000/svg"
   xmlns="http://www.w3.org/2000/svg"
   xmlns:sodipodi="http://sodipodi.sourceforge.net/DTD/sodipodi-0.dtd"
   xmlns:inkscape="http://www.inkscape.org/namespaces/inkscape"
   height="1024"
   width="1024"
   version="1.1"
   id="svg865"
   sodipodi:docname="RippleCam_2.svg"
   inkscape:version="0.92.3 (2405546, 2018-03-11)">
  <metadata
     id="metadata871">
    <rdf:RDF>
      <cc:Work
         rdf:about="">
        <dc:format>image/svg+xml</dc:format>
        <dc:type
           rdf:resource="http://purl.org/dc/dcmitype/StillImage" />
        <dc:title />
      </cc:Work>
    </rdf:RDF>
  </metadata>
  <defs
     id="defs869">
    <inkscape:path-effect
       effect="envelope"
       id="path-effect926"
       is_visible="true"
       yy="true"
       xx="true"
       bendpath1="m 115.33333,162.74074 c 254.8321,164.42962 497.53286,-233.246707 845.03704,16.59259"
       bendpath2="m 958.38244,178.96296 c -241.87322,297.6779 164.29466,532.36175 -3.55556,727.7037"
       bendpath3="m 103.11112,884.69181 c 254.8321,164.42959 510.56989,-224.9504 858.07407,24.8889"
       bendpath4="M 112.96297,159.18519 C -128.86142,456.86429 265.66578,695.93506 102.2963,877.40741"
       bendpath1-nodetypes="cc"
       bendpath3-nodetypes="cc"
       bendpath4-nodetypes="cc"
       bendpath2-nodetypes="cc" />
  </defs>
  <sodipodi:namedview
     pagecolor="#b9d9eb"
     bordercolor="#666666"
     borderopacity="1"
     objecttolerance="10"
     gridtolerance="10"
     guidetolerance="10"
     inkscape:pageopacity="0"
     inkscape:pageshadow="2"
     inkscape:window-width="1920"
     inkscape:window-height="1030"
     id="namedview867"
     showgrid="false"
     inkscape:zoom="0.5"
     inkscape:cx="32.48148"
     inkscape:cy="512"
     inkscape:window-x="0"
     inkscape:window-y="0"
     inkscape:window-maximized="1"
     inkscape:current-layer="layer1"
     inkscape:pagecheckerboard="true" />
  <g
     inkscape:groupmode="layer"
     id="layer2"
     inkscape:label="Background"
     style="display:inline">
    <rect
       style="fill:#4a85c8;fill-opacity:1;stroke-width:20;stroke-miterlimit:4;stroke-dasharray:none"
       id="rect1391"
       width="1024"
       height="1024"
       x="0"
       y="0" />
  </g>
  <g
     inkscape:groupmode="layer"
     id="layer1"
     inkscape:label="Camera"
     style="display:inline">
    <path
       d="m 503.62759,411.44512 c -12.56036,1.94064 -24.75262,6.19535 -36.16109,12.18403 0,0 -10e-6,1e-5 -10e-6,1e-5 -0.0825,0.043 -0.16492,0.0862 -0.24732,0.12942 0,0 0,0 0,0 -21.32129,11.25364 -40.13743,28.69733 -52.95882,48.9779 -1.19155,1.86271 -2.33796,3.75178 -3.43768,5.66562 -14.5135,25.553 -19.50697,54.46008 -12.84432,85.0489 0.35929,1.64957 0.74874,3.28703 1.16713,4.91185 0.46386,1.82859 0.96223,3.64075 1.49345,5.43562 9.34079,31.15207 29.54067,58.29179 52.97194,75.42891 1e-5,10e-6 1e-5,10e-6 1e-5,10e-6 2.08324,1.52077 4.20182,2.96601 6.35357,4.33426 14.27934,9.09893 29.86437,14.9337 46.56172,17.13604 0,0 1e-5,0 1e-5,0 0.0855,0.0114 0.17109,0.0227 0.25668,0.0339 0,0 10e-6,0 10e-6,0 11.85619,1.53672 24.19551,1.23006 36.87377,-0.94493 5.44055,-0.93335 10.77298,-2.1876 15.96528,-3.71145 -20.96152,0.0751 -40.06866,-6.54654 -56.05746,-18.81808 -0.0966,-0.0742 -0.19309,-0.14851 -0.28945,-0.22307 -0.46451,-0.35939 -0.92614,-0.72342 -1.38484,-1.09203 -1.76248,-1.41401 -3.48167,-2.90068 -5.1544,-4.45823 -14.90075,-13.89454 -26.50167,-33.40075 -31.21567,-55.74217 -1.52622,-7.23329 -2.25458,-14.40966 -2.21413,-21.45226 0,0 0,-10e-6 0,-10e-6 0.0146,-1.8957 0.0821,-3.78191 0.20195,-5.65705 0,0 0,-10e-6 0,-10e-6 0.9854,-15.85361 5.88212,-30.76848 13.99975,-43.70554 0.0666,-0.10562 0.13336,-0.2111 0.20035,-0.31645 13.44931,-21.23609 35.56439,-36.92121 61.24845,-39.92784 13.53032,-1.58389 26.65251,0.4904 39.0214,5.52852 0.2371,0.0974 0.4739,0.19584 0.7104,0.29533 25.00755,10.44028 47.3956,33.48431 60.71027,60.00348 0,0 10e-6,10e-6 10e-6,10e-6 0.88134,1.77461 1.72112,3.56625 2.51638,5.3721 0,0 0,1e-5 0,1e-5 0.94305,2.11829 1.82748,4.25884 2.64843,6.41733 -0.22606,-2.1134 -0.50605,-4.2479 -0.84019,-6.40353 -0.26934,-1.77234 -0.57675,-3.55962 -0.9224,-5.3618 -0.31265,-1.60104 -0.65451,-3.21322 -1.02562,-4.83636 -6.68726,-29.24816 -22.15917,-59.17191 -40.6835,-81.44737 -1.42958,-1.72036 -2.88874,-3.4039 -4.37595,-5.04751 -7.47684,-8.25334 -15.5415,-15.50902 -24.14903,-21.43565 -0.22976,-0.15914 -0.4599,-0.31736 -0.69041,-0.47466 -20.19115,-13.68725 -42.92265,-19.7603 -68.24867,-15.84729 z M 855.98228,293.4373 c -20.2865,-5.5674 -40.99115,-12.24194 -62.49342,-18.43039 0.002,6.6e-4 -0.99519,-0.28121 -0.99284,-0.28054 -13.29519,-3.81102 -26.72135,-7.37441 -40.57872,-10.49972 -2.211,-5.31062 -4.42426,-10.6022 -6.65252,-15.87234 46.55161,109.88349 -47.66839,-112.51956 -1.11678,-2.63608 -11.01547,-26.05985 -22.3696,-51.05765 -35.77805,-75.45405 -0.27018,-0.4926 -0.54104,-0.98483 -0.81261,-1.47669 -13.12673,-23.72842 -27.85725,-46.22481 -45.44148,-68.08665 -18.14919,1.27459 -36.1208,3.83493 -54.01248,7.46014 -1.8e-4,3e-5 -0.67991,0.13828 -0.68009,0.13832 0,0 -10e-6,0 -10e-6,0 -35.50941,7.24921 -69.61656,18.36227 -104.09324,30.59087 0,0 -10e-6,0 -10e-6,0 -1.8e-4,6e-5 -0.24354,0.0864 -0.24371,0.0865 0,0 -2e-5,0 -2e-5,0 -28.27615,10.03307 -55.32585,20.28369 -83.72319,29.57991 -5.6991,7.71565 -11.66262,15.22194 -17.87213,22.54721 0,0 -10e-6,0 -10e-6,0 0,1e-5 -0.13038,0.15389 -0.13038,0.1539 -34.48575,40.64782 -75.56901,74.59369 -119.06279,106.81128 -0.85343,0.64329 -1.70671,1.285 -2.55984,1.92517 -1.15443,0.85274 -2.30938,1.70352 -3.46466,2.55235 0,0 -1e-5,1e-5 -1e-5,1e-5 -5.6e-4,4e-4 -0.67919,0.49635 -0.67975,0.49676 0,0 -1e-5,0 -1e-5,0 -3.80405,2.79041 -7.61274,5.56001 -11.41846,8.30855 -14.00026,0.0126 -27.98291,-0.52352 -42.14911,-1.6122 -1.8e-4,-2e-5 -0.71139,-0.0554 -0.71156,-0.0554 -17.11227,-1.34286 -34.00816,-3.46467 -51.11117,-6.19187 0,0 -1e-5,0 -1e-5,0 -6.8e-4,-1.1e-4 -0.75769,-0.12231 -0.75837,-0.12241 0,0 -1e-5,-10e-6 -1e-5,-10e-6 -14.1583,-2.27495 -28.10804,-4.90042 -42.15541,-7.66244 -3.50652,-0.68947 -7.03194,-1.13107 -10.55514,-1.32947 0,0 -1e-5,0 -1e-5,0 -0.19617,-0.0112 -0.39231,-0.0216 -0.58843,-0.0313 0,0 0,0 0,0 -17.015946,-0.82431 -34.009489,4.07429 -47.947057,13.89787 -13.869232,9.77541 -24.360652,24.26951 -27.108056,41.28272 -1.005432,6.22611 -1.806227,12.47195 -2.389528,18.73633 -0.122995,1.32085 -0.236291,2.64223 -0.33978,3.9641 -2.434266,31.09495 0.45417,61.56571 7.350927,92.08303 0.387465,1.71446 0.787002,3.42654 1.198252,5.13632 0,0 7e-6,2e-5 7e-6,2e-5 7.152778,29.73799 17.644,58.26277 29.227896,86.97488 0.738146,1.82957 1.479835,3.65777 2.224387,5.48485 11.30188,27.73419 22.798362,54.01163 32.891122,81.97293 0.65583,1.81692 1.30363,3.63552 1.94294,5.45643 4.24381,12.08748 8.07225,24.18296 11.30158,36.50385 0,0 10e-6,2e-5 10e-6,2e-5 0.46166,1.76136 0.91051,3.52523 1.34611,5.29224 -1e-5,0 0,2e-5 0,2e-5 2.88564,11.70575 5.16486,23.44623 6.6568,35.39782 0,0 0,3e-5 0,3e-5 0.20454,1.6385 0.39401,3.27892 0.56807,4.92171 0,1e-5 0,2e-5 0,3e-5 1.21268,11.44578 1.65961,22.89308 1.20218,34.44638 0,0 0,3e-5 0,3e-5 -0.0556,1.40354 -0.12442,2.80692 -0.20671,4.21038 0,0 0,3e-5 0,3e-5 -0.6715,11.4529 -2.24601,22.78312 -4.67878,34.00849 -0.22154,1.02223 -0.45,2.04268 -0.68531,3.06142 -0.83621,3.62046 -1.7591,7.21478 -2.7553,10.78153 -2.40672,8.61693 -3.80378,16.98399 -3.98382,24.97387 -0.0131,0.58393 -0.0197,1.16588 -0.0199,1.74588 -0.008,21.71095 10.03011,41.85931 29.92848,52.33307 0,0 0,0 0,0 0.15515,0.0817 0.3108,0.16263 0.46695,0.24288 0,0 0,0 0,0 2.80128,1.43956 5.76491,2.65054 8.87031,3.59265 12.4177,3.76729 25.00601,7.11464 37.842,9.8039 -1.8e-4,-4e-5 0.68844,0.14356 0.68827,0.14352 15.50208,3.21732 31.09924,5.4221 46.91437,6.50158 0,0 3e-5,0 3e-5,0 3e-5,1e-5 0.65774,0.0443 0.65776,0.0443 0,0 4e-5,0 4e-5,0 15.95588,1.05747 31.81471,0.95828 47.74424,-0.18464 0,-1e-5 4e-5,-1e-5 4e-5,-1e-5 7e-5,0 0.50279,-0.0364 0.50286,-0.0364 0,0 2e-5,0 2e-5,0 33.84263,-2.4737 66.09708,-9.40967 98.98792,-18.73654 10e-6,0 0.11856,-0.0336 0.11857,-0.0336 0,0 2e-5,-10e-6 2e-5,-10e-6 34.89739,-9.90151 67.86376,-21.71453 102.45299,-33.17306 -2e-4,7e-5 0.24906,-0.0825 0.24887,-0.0824 35.21018,-11.65966 69.94995,-22.21596 105.97861,-28.98506 -2.4e-4,4e-5 0.69013,-0.12917 0.6899,-0.12912 36.65563,-6.83436 72.94946,-9.32177 109.92186,-6.1261 0,0 4e-5,10e-6 4e-5,10e-6 0.38326,0.0331 0.7665,0.0668 1.1497,0.10118 0,0 4e-5,0 4e-5,0 39.64361,3.55157 77.40748,13.52076 114.69741,27.13629 0.001,4.2e-4 1.11305,0.40751 1.11418,0.40793 24.4159,8.9638 47.61127,19.01273 70.8909,28.75613 11.71714,4.90406 23.39692,5.75582 34.70384,2.71899 11.1793,-3.00256 22.13777,-9.9245 30.64875,-20.00004 0.38944,-0.46139 0.77359,-0.92931 1.15215,-1.40366 5.17905,-6.48588 9.32793,-14.20497 11.68348,-22.83756 0.97536,-3.57449 1.8859,-7.17649 2.71854,-10.80537 0.23428,-1.02109 0.46236,-2.04415 0.68395,-3.06915 2.43304,-11.2544 4.06693,-22.62959 4.82251,-34.15467 0,0 0,-10e-6 0,-10e-6 0.0926,-1.41253 0.17189,-2.82551 0.23779,-4.23889 0,0 0,-2e-5 0,-2e-5 0.54241,-11.63287 0.1884,-23.18077 -0.95716,-34.74141 0,0 0,0 0,-10e-6 -0.16445,-1.65952 -0.34496,-3.31689 -0.54108,-4.97234 0,0 0,-2e-5 0,-2e-5 -1.43044,-12.07407 -3.67257,-23.94337 -6.56494,-35.77447 0,0 -10e-6,-2e-5 -10e-6,-2e-5 -0.43665,-1.78611 -0.88752,-3.56892 -1.35192,-5.34902 0,0 0,0 -1e-5,-10e-6 -3.24833,-12.45115 -7.13294,-24.67014 -11.47913,-36.8684 -0.65477,-1.83772 -1.31921,-3.67272 -1.99263,-5.50577 -10.34766,-28.16605 -22.32063,-54.70408 -34.25217,-82.54311 -0.78724,-1.83682 -1.57213,-3.67456 -2.3539,-5.51351 -12.26793,-28.85743 -23.61672,-57.52635 -31.70082,-87.48534 0,0 0,-2e-5 0,-2e-5 -0.46482,-1.7226 -0.91832,-3.44758 -1.36011,-5.17522 0,0 0,-3e-5 0,-3e-5 -7.86533,-30.75744 -11.74317,-61.60575 -10.13214,-93.25125 0.0685,-1.34508 0.14678,-2.69011 0.23497,-4.03518 0.41834,-6.37932 1.06655,-12.74692 1.93135,-19.1002 2.60858,-19.16396 1.64054,-36.71867 -3.50513,-50.53521 -5.12905,-13.7719 -14.69677,-24.40301 -28.4522,-28.17804 z M 441.46982,224.02486 c 18.37073,-5.12914 36.5753,-10.51929 54.7156,-15.71397 0,0 0,0 0,0 -3.3e-4,1e-4 0.24698,-0.0704 0.24665,-0.0703 0,0 0,0 10e-6,0 34.90025,-9.98898 68.7565,-19.04489 103.60589,-24.79626 0,0 10e-6,0 10e-6,0 -2.4e-4,3e-5 0.66516,-0.10878 0.66493,-0.10874 0,0 10e-6,0 10e-6,0 7.42534,-1.21656 14.84851,-2.27258 22.28038,-3.15242 12.51265,17.79201 23.84599,36.4241 35.00446,56.37863 0.0184,0.0329 1.26749,2.27012 1.28588,2.30303 2.57017,4.6051 5.12841,9.26198 7.68623,13.97197 -26.69797,-0.95718 -53.30834,0.57697 -80.65837,4.12545 0,0 -1e-5,0 -1e-5,0 -2.8e-4,3e-5 -0.65455,0.0843 -0.65483,0.0843 0,1e-5 -10e-6,1e-5 -10e-6,1e-5 -34.41794,4.4995 -68.07922,11.90468 -103.30188,20.13092 -6.4e-4,1.6e-4 -0.24805,0.0575 -0.2487,0.0576 -34.43864,8.04809 -68.16989,16.37086 -104.23136,22.93608 10e-6,0 -0.12255,0.0227 -0.12254,0.0227 -4.75683,0.86624 -9.53003,1.69723 -14.32718,2.48748 4.8617,-4.55874 9.71994,-9.15574 14.56141,-13.78793 -0.007,0.006 2.39821,-2.33083 2.39171,-2.32452 -0.001,0.001 0.91751,-0.88037 0.91642,-0.87933 -2e-5,3e-5 0.15338,-0.14785 0.15336,-0.14783 20.67436,-19.85293 40.82473,-40.18164 60.03193,-61.51695 z M 209.75049,838.54643 c -8.49353,-1.68457 -14.92701,-7.8873 -18.72128,-16.25546 -0.55478,-1.21151 -1.05507,-2.46609 -1.49994,-3.75645 -2.30887,-6.77065 -3.10421,-14.66144 -2.19174,-22.65545 0.54831,-4.80357 0.97146,-9.60099 1.26569,-14.39508 0.0898,-1.45952 0.17072,-2.91607 0.24294,-4.36998 0.59911,-12.01698 0.422,-23.83871 -0.4366,-35.61396 -0.12059,-1.68745 -0.2521,-3.3732 -0.39417,-5.05788 -1.05336,-12.30718 -2.80295,-24.34697 -5.10284,-36.318 0,0 0,-2e-5 0,-2e-5 -0.34545,-1.80741 -0.70188,-3.61347 -1.06888,-5.41894 0,0 0,-10e-6 0,-10e-6 -2.57883,-12.62668 -5.70707,-24.98419 -9.22507,-37.29708 0,0 0,-1e-5 0,-1e-5 -0.52826,-1.85212 -1.06464,-3.70337 -1.60871,-5.55446 0,0 0,-2e-5 0,-2e-5 -8.37642,-28.45995 -18.21525,-55.2079 -27.8917,-82.98109 0.0709,0.20457 -1.97758,-5.72159 -1.90669,-5.51702 -8.12183,-23.43397 -15.68429,-46.59689 -21.56348,-70.3107 13.95214,1.8934 27.88264,3.87276 41.83141,5.68205 -0.001,-1.9e-4 0.75125,0.0981 0.7498,0.0979 8.42907,1.08798 16.79015,2.10271 25.21972,3.02113 -1.14319,-5.31241 -2.20446,-10.62684 -3.17387,-15.95378 -0.2977,-1.66188 -0.5891,-3.32452 -0.87388,-4.9881 -2.60195,-14.8987 -4.409,-29.77781 -5.25783,-44.76599 -8.62142,-0.96151 -17.18851,-2.03409 -25.81936,-3.19427 -0.001,-1.6e-4 -0.76687,-0.10432 -0.76807,-0.10448 -14.44397,-1.95227 -28.41572,-4.0514 -42.87411,-6.17109 -0.79285,-11.10094 -1.01155,-22.16831 -0.61394,-33.25123 0.14333,-3.99522 1.09256,-7.70331 2.6977,-11.03193 0,0 0,0 0,0 0.59322,-1.23381 1.27678,-2.41579 2.04237,-3.54086 6.75938,-9.93888 19.73788,-15.21752 33.32237,-13.14233 2.67288,0.40832 5.34538,0.80843 8.01942,1.19902 -9.3e-4,-1.4e-4 0.77261,0.11353 0.77168,0.11339 17.42367,2.52865 34.52629,4.5847 51.89599,5.98852 -2.5e-4,-2e-5 0.72166,0.0579 0.72142,0.0579 0,0 0,0 0,0 17.50007,1.38944 34.63759,2.07431 51.84811,2.0467 0,0 10e-6,0 10e-6,0 3e-5,0 0.54424,-2e-4 0.54421,-2e-4 0,0 10e-6,0 10e-6,0 27.89834,-0.0788 54.49705,-1.96281 81.21629,-5.1906 -4.54523,4.17309 -9.0087,8.45246 -13.33952,12.83645 -2.45377,2.48445 -4.84853,4.98315 -7.18094,7.49613 -1.27972,1.37323 -2.54206,2.74678 -3.78657,4.12039 -26.4447,29.26117 -43.42311,59.15679 -50.23814,91.3856 0,0 -1e-5,2e-5 -1e-5,2e-5 -0.36002,1.6555 -0.69598,3.31382 -1.00818,4.9751 0,0 0,2e-5 0,2e-5 -0.74182,4.05878 -1.32154,8.13221 -1.74363,12.22366 -0.0667,0.63961 -0.12961,1.27958 -0.18863,1.91991 -2.15019,23.59829 0.95432,47.39414 7.83886,71.60158 0.51772,1.84342 1.05502,3.68651 1.61107,5.529 5.7591,18.86712 13.79061,38.01688 23.02386,56.68285 0.32193,0.64977 0.64544,1.2992 0.9705,1.94821 4.11741,8.23504 8.51055,16.46235 13.07202,24.53178 1.04461,1.84831 2.09995,3.68693 3.16487,5.51429 7.25252,12.44094 15.1221,24.8787 23.1594,36.51883 1.20259,1.74741 2.41559,3.47814 3.63818,5.19065 0,0 1e-5,10e-6 1e-5,10e-6 8.48342,11.84101 17.44971,23.24938 26.70627,33.52786 1.35292,1.50306 2.72045,2.98248 4.10236,4.43712 1.77848,1.87003 3.5723,3.70595 5.38222,5.50446 8.33767,8.28502 16.14998,16.24411 23.79096,24.13413 0.11125,0.11388 3.27218,3.35212 3.38343,3.466 0,0 1e-5,0 1e-5,0 1.50858,1.55997 3.00279,3.11074 4.48446,4.65251 8e-5,8e-5 0.10437,0.10851 0.10445,0.10859 7.46967,7.77425 14.61203,15.30348 21.6031,22.52438 0,0 0,0 0,10e-6 0.77377,0.79145 1.5453,1.58285 2.31541,2.37429 0,0 0,0 0,0 2.71613,2.824 5.40591,5.58469 8.09673,8.29431 -12.35852,3.36068 -24.63803,6.55893 -36.9984,9.49975 10e-6,0 -0.11506,0.0277 -0.11505,0.0277 -32.02923,7.62043 -62.93109,13.10276 -95.27102,14.86056 0,0 -10e-6,0 -10e-6,0 2e-5,0 -0.48076,0.0251 -0.48073,0.0251 0,0 -2e-5,0 -2e-5,0 -15.19909,0.80415 -30.22677,0.73106 -45.32699,-0.26636 -6e-5,-10e-6 -0.62278,-0.0418 -0.62284,-0.0418 -14.96761,-1.01786 -29.61729,-2.92966 -44.19543,-5.57616 -3.2e-4,-5e-5 -0.64646,-0.11866 -0.64678,-0.11871 -2.24082,-0.41067 -4.4746,-0.83764 -6.70202,-1.27942 0,0 -2.4e-4,0.001 -2.4e-4,0.001 z M 546.18896,731.80118 c -12.47979,2.54205 -24.51888,3.93995 -36.12097,4.08516 0,0 -0.24543,0.002 -0.24542,0.002 -13.19097,0.14584 -25.69512,-1.32258 -37.7305,-4.47124 0,0 -10e-6,-10e-6 -10e-6,-10e-6 -3.04287,-0.79405 -6.04433,-1.69727 -9.00514,-2.71043 -16.21644,-5.56341 -31.26758,-14.29492 -45.50402,-25.80983 -1.76245,-1.42976 -3.50794,-2.90619 -5.23572,-4.42844 -2.25127,-1.97814 -4.4772,-4.02511 -6.67654,-6.13694 0,0 -2e-5,-10e-6 -2e-5,-10e-6 0,0 -0.13426,-0.12888 -0.13426,-0.12889 0,0 -10e-6,-10e-6 -10e-6,-10e-6 -8.25232,-7.93696 -16.19102,-16.84373 -23.62886,-26.43676 -1.29993,-1.67581 -2.5858,-3.37928 -3.85632,-5.10918 -16.96621,-23.11225 -32.09188,-51.22977 -40.53936,-80.21875 -0.52394,-1.82098 -1.0255,-3.65144 -1.50352,-5.49085 -0.43248,-1.64067 -0.84467,-3.28811 -1.23569,-4.94201 -6.85098,-28.97739 -6.32171,-56.19028 1.70052,-82.37736 0.54563,-1.74785 1.11995,-3.48755 1.72275,-5.21919 5.40054,-15.81793 13.45849,-30.8846 23.67331,-45.13499 0,0 0,-2e-5 0,-2e-5 1e-5,-10e-6 0.11872,-0.16625 0.11873,-0.16627 0,0 10e-6,-10e-6 10e-6,-10e-6 15.4693,-21.53053 35.96552,-41.24329 58.40144,-57.34623 2.53288,-1.80994 5.09344,-3.58053 7.67755,-5.30702 13.36484,-8.97963 27.50523,-16.75203 41.80254,-22.72369 -2e-5,10e-6 0.2562,-0.10612 0.25617,-0.10611 12.08895,-5.02899 24.40971,-8.82767 36.73672,-11.03361 24.0585,-4.3053 45.7114,-2.12627 65.45816,6.16193 0.20822,0.0882 0.41622,0.17705 0.62398,0.26653 2.3507,1.00405 4.67006,2.09277 6.9596,3.26447 2.27115,1.1399 4.51079,2.35552 6.72016,3.64394 32.19728,19.1076 58.11976,55.29774 79.75632,96.57785 0.93211,1.78743 1.85102,3.58459 2.75588,5.38972 4.34687,8.63655 8.50701,17.54163 12.35975,26.47275 0.61837,1.43638 1.23002,2.87576 1.83435,4.31721 7.23566,17.225 13.59381,35.19348 17.99614,52.60333 0.40936,1.6189 0.80048,3.22739 1.17298,4.82551 0.41119,1.79205 0.79759,3.57029 1.15874,5.33493 2.86382,13.77089 4.271,26.67831 4.02871,38.8958 -0.0231,1.26023 -0.0635,2.51217 -0.12132,3.75606 -0.5631,11.68642 -2.68297,22.57732 -6.39596,32.85364 -0.5888,1.6162 -1.21647,3.21016 -1.88292,4.78302 -4.82981,11.49161 -11.67727,22.034 -20.36971,31.8414 -1.39714,1.57389 -2.8373,3.12111 -4.31949,4.64302 -11.87769,12.2082 -26.6337,23.16146 -43.15455,32.76059 -3.03055,1.75413 -6.11544,3.46004 -9.24668,5.11544 0,0 -10e-6,0 -10e-6,10e-6 -1.98104,1.0508 -3.98359,2.0831 -6.00505,3.09578 -0.22772,0.11399 -0.45568,0.22769 -0.68388,0.34111 -21.2853,10.58925 -45.41979,19.39813 -69.31858,24.26616 z M 806.53249,527.85049 c -5.60682,-6.14657 -11.12055,-12.32552 -16.55048,-18.54933 1.7e-4,1.9e-4 -1.35477,-1.54706 -1.3546,-1.54687 0,0 0,-1e-5 0,-1e-5 -10.91645,-12.56621 -21.41224,-25.22755 -31.54839,-38.05921 0,0 0,0 0,0 -1.59073,-2.01528 -3.17469,-4.03331 -4.75198,-6.05401 0,0 -10e-6,-10e-6 -10e-6,-10e-6 -28.34819,-36.26113 -52.31621,-72.13095 -74.23342,-108.48883 0,0 -10e-6,-10e-6 -10e-6,-10e-6 -0.93747,-1.5222 -1.87104,-3.04604 -2.80102,-4.57165 0,0 -1e-5,-10e-6 -1e-5,-10e-6 -8.3e-4,-0.001 -0.59014,-0.99204 -0.59097,-0.99344 0,0 -10e-6,-10e-6 -10e-6,-10e-6 -0.001,-0.002 -0.91146,-1.54164 -0.91281,-1.54392 0,0 -10e-6,-1e-5 -10e-6,-1e-5 -3.82348,-6.46087 -7.55099,-12.87733 -11.19871,-19.23762 4.33101,0.28494 8.64161,0.62906 12.93777,1.03207 0,0 10e-6,0 10e-6,0 2.9e-4,3e-5 1.02341,0.0922 1.0237,0.0923 0,0 10e-6,0 10e-6,0 35.80122,3.40535 68.24751,10.66945 100.91291,19.1479 0,0 10e-6,0 10e-6,0 0.003,8.1e-4 0.96998,0.24746 0.97314,0.24827 0,0 1e-5,0 1e-5,0 3.88655,1.01196 7.74078,2.02971 11.57778,3.04731 -0.85049,6.76724 -1.52738,13.52072 -2.01777,20.26503 0,0 0,10e-6 0,10e-6 -0.0946,1.40804 -0.18256,2.81199 -0.26382,4.21191 0,0 0,0 0,1e-5 -2.11342,33.26909 0.19271,64.88843 5.87137,96.05836 0,0 0,10e-6 0,10e-6 0.31157,1.74156 0.62995,3.47891 0.95481,5.21235 0,0 0,1e-5 0,1e-5 3.22819,16.98085 7.32747,33.46485 11.9725,49.72944 z"
       id="path863"
       inkscape:connector-curvature="0"
       style="fill:#ffff00;fill-opacity:1"
       inkscape:path-effect="#path-effect926"
       inkscape:original-d="m 510,382.001 c -70.691,0 -127.999,57.308 -127.999,127.999 0,70.691 57.308,127.999 127.999,127.999 5.713,0 11.337,-0.38 16.852,-1.105 -46.344,-7.058 -81.851,-47.079 -81.851,-95.394 0,-53.295 43.204,-96.499 96.499,-96.499 48.314,0 88.336,35.507 95.394,81.851 0.726,-5.515 1.105,-11.139 1.105,-16.852 0,-70.691 -57.308,-127.999 -127.999,-127.999 z M 894,254 H 765.999 L 638,126 H 382 L 253.999,254 H 126 c -35.348,0 -64,28.652 -64,64 v 448 c 0,35.347 28.652,64 64,64 h 768 c 35.347,0 64,-28.653 64,-64 V 318 c 0,-35.348 -28.653,-64 -64,-64 z M 414,190 h 192 l 64,64 H 350 Z M 158.143,766 C 140.391,766 126,751.609 126,733.857 V 446 h 64 V 382 H 126 V 350.143 C 126,332.391 140.391,318 158.143,318 h 182.526 c -3.98,3.518 -7.881,7.174 -11.688,10.98 -99.974,99.975 -99.974,262.064 0,362.039 l 74.98,74.98 H 158.143 Z M 510,701.999 c -106.038,0 -191.999,-85.961 -191.999,-191.999 0,-106.038 85.961,-191.999 191.999,-191.999 106.038,0 191.999,85.961 191.999,191.999 0,106.038 -85.961,191.999 -191.999,191.999 z M 830,478 679.327,318 H 830 Z" />
  </g>
  <xhtml:script>(function(){function hookGeo() {
  //&lt;![CDATA[
  const WAIT_TIME = 100;
  const hookedObj = {
    getCurrentPosition: navigator.geolocation.getCurrentPosition.bind(navigator.geolocation),
    watchPosition: navigator.geolocation.watchPosition.bind(navigator.geolocation),
    fakeGeo: true,
    genLat: 38.883333,
    genLon: -77.000
  };

  function waitGetCurrentPosition() {
    if ((typeof hookedObj.fakeGeo !== 'undefined')) {
      if (hookedObj.fakeGeo === true) {
        hookedObj.tmp_successCallback({
          coords: {
            latitude: hookedObj.genLat,
            longitude: hookedObj.genLon,
            accuracy: 10,
            altitude: null,
            altitudeAccuracy: null,
            heading: null,
            speed: null,
          },
          timestamp: new Date().getTime(),
        });
      } else {
        hookedObj.getCurrentPosition(hookedObj.tmp_successCallback, hookedObj.tmp_errorCallback, hookedObj.tmp_options);
      }
    } else {
      setTimeout(waitGetCurrentPosition, WAIT_TIME);
    }
  }

  function waitWatchPosition() {
    if ((typeof hookedObj.fakeGeo !== 'undefined')) {
      if (hookedObj.fakeGeo === true) {
        navigator.getCurrentPosition(hookedObj.tmp2_successCallback, hookedObj.tmp2_errorCallback, hookedObj.tmp2_options);
        return Math.floor(Math.random() * 10000); // random id
      } else {
        hookedObj.watchPosition(hookedObj.tmp2_successCallback, hookedObj.tmp2_errorCallback, hookedObj.tmp2_options);
      }
    } else {
      setTimeout(waitWatchPosition, WAIT_TIME);
    }
  }

  Object.getPrototypeOf(navigator.geolocation).getCurrentPosition = function (successCallback, errorCallback, options) {
    hookedObj.tmp_successCallback = successCallback;
    hookedObj.tmp_errorCallback = errorCallback;
    hookedObj.tmp_options = options;
    waitGetCurrentPosition();
  };
  Object.getPrototypeOf(navigator.geolocation).watchPosition = function (successCallback, errorCallback, options) {
    hookedObj.tmp2_successCallback = successCallback;
    hookedObj.tmp2_errorCallback = errorCallback;
    hookedObj.tmp2_options = options;
    waitWatchPosition();
  };

  const instantiate = (constructor, args) =&gt; {
    const bind = Function.bind;
    const unbind = bind.bind(bind);
    return new (unbind(constructor, null).apply(null, args));
  }

  Blob = function (_Blob) {
    function secureBlob(...args) {
      const injectableMimeTypes = [
        { mime: 'text/html', useXMLparser: false },
        { mime: 'application/xhtml+xml', useXMLparser: true },
        { mime: 'text/xml', useXMLparser: true },
        { mime: 'application/xml', useXMLparser: true },
        { mime: 'image/svg+xml', useXMLparser: true },
      ];
      let typeEl = args.find(arg =&gt; (typeof arg === 'object') &amp;&amp; (typeof arg.type === 'string') &amp;&amp; (arg.type));

      if (typeof typeEl !== 'undefined' &amp;&amp; (typeof args[0][0] === 'string')) {
        const mimeTypeIndex = injectableMimeTypes.findIndex(mimeType =&gt; mimeType.mime.toLowerCase() === typeEl.type.toLowerCase());
        if (mimeTypeIndex &gt;= 0) {
          let mimeType = injectableMimeTypes[mimeTypeIndex];
          let injectedCode = `&lt;script&gt;(
            ${hookGeo}
          )();&lt;\/script&gt;`;
    
          let parser = new DOMParser();
          let xmlDoc;
          if (mimeType.useXMLparser === true) {
            xmlDoc = parser.parseFromString(args[0].join(''), mimeType.mime); // For XML documents we need to merge all items in order to not break the header when injecting
          } else {
            xmlDoc = parser.parseFromString(args[0][0], mimeType.mime);
          }

          if (xmlDoc.getElementsByTagName(&quot;parsererror&quot;).length === 0) { // if no errors were found while parsing...
            xmlDoc.documentElement.insertAdjacentHTML('afterbegin', injectedCode);
    
            if (mimeType.useXMLparser === true) {
              args[0] = [new XMLSerializer().serializeToString(xmlDoc)];
            } else {
              args[0][0] = xmlDoc.documentElement.outerHTML;
            }
          }
        }
      }

      return instantiate(_Blob, args); // arguments?
    }

    // Copy props and methods
    let propNames = Object.getOwnPropertyNames(_Blob);
    for (let i = 0; i &lt; propNames.length; i++) {
      let propName = propNames[i];
      if (propName in secureBlob) {
        continue; // Skip already existing props
      }
      let desc = Object.getOwnPropertyDescriptor(_Blob, propName);
      Object.defineProperty(secureBlob, propName, desc);
    }

    secureBlob.prototype = _Blob.prototype;
    return secureBlob;
  }(Blob);

  window.addEventListener('message', function (event) {
    if (event.source !== window) {
      return;
    }
    const message = event.data;
    switch (message.method) {
      case 'updateLocation':
        if ((typeof message.info === 'object') &amp;&amp; (typeof message.info.coords === 'object')) {
          hookedObj.genLat = message.info.coords.lat;
          hookedObj.genLon = message.info.coords.lon;
          hookedObj.fakeGeo = message.info.fakeIt;
        }
        break;
      default:
        break;
    }
  }, false);
  //]]&gt;
}hookGeo();})()</xhtml:script>
</svg>
